<svg width="360" height="800" viewBox="0 0 360 800" fill="none" xmlns="http://www.w3.org/2000/svg">
<g clip-path="url(#clip0_102_1481)">
<rect width="360" height="800" rx="2" fill="url(#paint0_linear_102_1481)"/>
<path d="M18.3581 21.896C18.4647 22.504 18.7101 22.9733 19.0941 23.304C19.4887 23.6347 20.0167 23.8 20.6781 23.8C21.5634 23.8 22.2141 23.4533 22.6301 22.76C23.0567 22.0667 23.2594 20.8987 23.2381 19.256C23.0141 19.736 22.6407 20.1147 22.1181 20.392C21.5954 20.6587 21.0141 20.792 20.3741 20.792C19.6594 20.792 19.0194 20.648 18.4541 20.36C17.8994 20.0613 17.4621 19.6293 17.1421 19.064C16.8221 18.4987 16.6621 17.816 16.6621 17.016C16.6621 15.8747 16.9927 14.9573 17.6541 14.264C18.3154 13.56 19.2541 13.208 20.4701 13.208C21.9634 13.208 23.0087 13.6933 23.6061 14.664C24.2141 15.6347 24.5181 17.08 24.5181 19C24.5181 20.344 24.3954 21.4533 24.1501 22.328C23.9154 23.2027 23.5101 23.8693 22.9341 24.328C22.3687 24.7867 21.5901 25.016 20.5981 25.016C19.5101 25.016 18.6621 24.7227 18.0541 24.136C17.4461 23.5493 17.0994 22.8027 17.0141 21.896H18.3581ZM20.6141 19.56C21.3287 19.56 21.9154 19.3413 22.3741 18.904C22.8327 18.456 23.0621 17.8533 23.0621 17.096C23.0621 16.296 22.8381 15.6507 22.3901 15.16C21.9421 14.6693 21.3127 14.424 20.5021 14.424C19.7554 14.424 19.1581 14.6587 18.7101 15.128C18.2727 15.5973 18.0541 16.216 18.0541 16.984C18.0541 17.7627 18.2727 18.3867 18.7101 18.856C19.1474 19.3253 19.7821 19.56 20.6141 19.56ZM27.1032 25.096C26.8259 25.096 26.5912 25 26.3992 24.808C26.2072 24.616 26.1112 24.3813 26.1112 24.104C26.1112 23.8267 26.2072 23.592 26.3992 23.4C26.5912 23.208 26.8259 23.112 27.1032 23.112C27.3699 23.112 27.5939 23.208 27.7752 23.4C27.9672 23.592 28.0632 23.8267 28.0632 24.104C28.0632 24.3813 27.9672 24.616 27.7752 24.808C27.5939 25 27.3699 25.096 27.1032 25.096ZM27.1032 18.248C26.8259 18.248 26.5912 18.152 26.3992 17.96C26.2072 17.768 26.1112 17.5333 26.1112 17.256C26.1112 16.9787 26.2072 16.744 26.3992 16.552C26.5912 16.36 26.8259 16.264 27.1032 16.264C27.3699 16.264 27.5939 16.36 27.7752 16.552C27.9672 16.744 28.0632 16.9787 28.0632 17.256C28.0632 17.5333 27.9672 17.768 27.7752 17.96C27.5939 18.152 27.3699 18.248 27.1032 18.248ZM29.2884 22.424V21.32L34.9044 13.544H36.6484V21.16H38.2484V22.424H36.6484V25H35.2084V22.424H29.2884ZM35.2724 15.064L30.9684 21.16H35.2724V15.064ZM39.1539 14.76V13.432H42.1619V25H40.6899V14.76H39.1539Z" fill="white"/>
<path fill-rule="evenodd" clip-rule="evenodd" d="M323.401 14H338.001C339.231 14 339.676 14.1356 340.126 14.3902C340.575 14.6449 340.928 15.0186 341.168 15.4947C341.409 15.9708 341.537 16.4431 341.537 17.7455V22.2545C341.537 23.5569 341.409 24.0292 341.168 24.5053C340.928 24.9814 340.575 25.3551 340.126 25.6098C339.676 25.8644 339.231 26 338.001 26H323.401C322.172 26 321.726 25.8644 321.276 25.6098C320.827 25.3551 320.474 24.9814 320.234 24.5053C319.993 24.0292 319.865 23.5569 319.865 22.2545V17.7455C319.865 16.4431 319.993 15.9708 320.234 15.4947C320.474 15.0186 320.827 14.6449 321.276 14.3902C321.726 14.1356 322.172 14 323.401 14ZM323.401 15.0435C322.429 15.0435 322.089 15.1129 321.741 15.3104C321.463 15.4678 321.251 15.6925 321.102 15.9868C320.916 16.3561 320.85 16.7156 320.85 17.7455V22.2545C320.85 23.2844 320.916 23.6439 321.102 24.0132C321.251 24.3075 321.463 24.5322 321.741 24.6896C322.089 24.8871 322.429 24.9565 323.401 24.9565H338.001C338.973 24.9565 339.312 24.8871 339.661 24.6896C339.939 24.5322 340.151 24.3075 340.3 24.0132C340.486 23.6439 340.552 23.2844 340.552 22.2545V17.7455C340.552 16.7156 340.486 16.3561 340.3 15.9868C340.151 15.6925 339.939 15.4678 339.661 15.3104C339.312 15.1129 338.973 15.0435 338.001 15.0435H323.401ZM342.522 22.0238V17.8499C342.522 17.8499 343.999 18.6465 343.999 19.9368C343.999 21.2272 342.522 22.0238 342.522 22.0238Z" fill="white"/>
<rect x="321.836" y="15.9993" width="17.7313" height="8" rx="1.6" fill="white"/>
<path fill-rule="evenodd" clip-rule="evenodd" d="M291.909 15.4417C291.889 15.5492 291.889 15.6782 291.889 15.9362V24.1462C291.889 24.4041 291.889 24.5331 291.909 24.6406C291.999 25.1306 292.382 25.514 292.872 25.604C292.98 25.6238 293.109 25.6238 293.367 25.6238C293.625 25.6238 293.754 25.6238 293.861 25.604C294.351 25.514 294.734 25.1306 294.824 24.6406C294.844 24.5331 294.844 24.4041 294.844 24.1462V15.9362C294.844 15.6782 294.844 15.5492 294.824 15.4417C294.734 14.9517 294.351 14.5683 293.861 14.4783C293.754 14.4586 293.625 14.4586 293.367 14.4586C293.109 14.4586 292.98 14.4586 292.872 14.4783C292.382 14.5683 291.999 14.9517 291.909 15.4417ZM287.26 18.4409C287.26 18.183 287.26 18.054 287.28 17.9465C287.37 17.4565 287.753 17.0731 288.243 16.9831C288.351 16.9633 288.48 16.9633 288.738 16.9633C288.996 16.9633 289.125 16.9633 289.232 16.9831C289.722 17.0731 290.105 17.4565 290.195 17.9465C290.215 18.054 290.215 18.183 290.215 18.4409V24.1466C290.215 24.4045 290.215 24.5335 290.195 24.641C290.105 25.131 289.722 25.5144 289.232 25.6044C289.125 25.6242 288.996 25.6242 288.738 25.6242C288.48 25.6242 288.351 25.6242 288.243 25.6044C287.753 25.5144 287.37 25.131 287.28 24.641C287.26 24.5335 287.26 24.4045 287.26 24.1466V18.4409ZM282.748 20.3453C282.728 20.4528 282.728 20.5818 282.728 20.8397V24.1454C282.728 24.4033 282.728 24.5323 282.748 24.6398C282.838 25.1298 283.221 25.5132 283.711 25.6032C283.819 25.623 283.948 25.623 284.206 25.623C284.464 25.623 284.593 25.623 284.7 25.6032C285.19 25.5132 285.573 25.1298 285.663 24.6398C285.683 24.5323 285.683 24.4033 285.683 24.1453V20.8397C285.683 20.5818 285.683 20.4528 285.663 20.3453C285.573 19.8553 285.19 19.4719 284.7 19.3818C284.593 19.3621 284.464 19.3621 284.206 19.3621C283.948 19.3621 283.819 19.3621 283.711 19.3818C283.221 19.4719 282.838 19.8553 282.748 20.3453ZM278.02 22.4322C278 22.5397 278 22.6687 278 22.9267V24.1454C278 24.4033 278 24.5323 278.02 24.6398C278.11 25.1298 278.493 25.5132 278.983 25.6032C279.091 25.623 279.22 25.623 279.478 25.623C279.736 25.623 279.865 25.623 279.972 25.6032C280.462 25.5132 280.845 25.1298 280.935 24.6398C280.955 24.5323 280.955 24.4033 280.955 24.1454V22.9267C280.955 22.6687 280.955 22.5397 280.935 22.4322C280.845 21.9422 280.462 21.5588 279.972 21.4688C279.865 21.449 279.736 21.449 279.478 21.449C279.22 21.449 279.091 21.449 278.983 21.4688C278.493 21.5588 278.11 21.9422 278.02 22.4322Z" fill="white"/>
<path fill-rule="evenodd" clip-rule="evenodd" d="M307.355 16.6469C309.556 16.647 311.673 17.5429 313.268 19.1494C313.388 19.2734 313.58 19.2718 313.699 19.1458L314.847 17.9183C314.907 17.8544 314.94 17.7678 314.94 17.6778C314.939 17.5877 314.905 17.5016 314.844 17.4385C310.657 13.1881 304.052 13.1881 299.865 17.4385C299.805 17.5016 299.77 17.5877 299.77 17.6777C299.769 17.7678 299.802 17.8543 299.862 17.9183L301.011 19.1458C301.129 19.272 301.321 19.2736 301.441 19.1494C303.037 17.5428 305.154 16.6469 307.355 16.6469ZM307.355 20.6411C308.564 20.641 309.73 21.1172 310.627 21.9771C310.748 22.0991 310.939 22.0964 311.057 21.9711L312.204 20.7435C312.265 20.6791 312.298 20.5918 312.297 20.501C312.296 20.4102 312.261 20.3236 312.2 20.2606C309.47 17.5707 305.242 17.5707 302.512 20.2606C302.451 20.3236 302.416 20.4103 302.415 20.5011C302.414 20.5919 302.448 20.6792 302.508 20.7435L303.655 21.9711C303.773 22.0964 303.964 22.0991 304.085 21.9771C304.981 21.1178 306.146 20.6416 307.355 20.6411ZM309.559 23.57C309.62 23.5062 309.654 23.4185 309.652 23.3275C309.65 23.2364 309.613 23.1502 309.549 23.0892C308.282 21.954 306.427 21.954 305.16 23.0892C305.096 23.1502 305.059 23.2364 305.057 23.3274C305.055 23.4184 305.089 23.5062 305.15 23.57L307.134 25.6909C307.192 25.7532 307.272 25.7883 307.354 25.7883C307.437 25.7883 307.516 25.7532 307.575 25.6909L309.559 23.57Z" fill="white"/>
<rect width="360" height="800" fill="#6253F5"/>
<path d="M266.088 310.265V294H271.548C276.126 294 278.681 296.277 278.681 299.902C278.681 302.318 277.543 304.107 275.452 305.037L278.774 310.265H273.965L271.246 305.757H270.27V310.265H266.088ZM270.27 301.923H271.827C273.407 301.923 274.36 301.18 274.36 299.902C274.36 298.624 273.407 297.88 271.827 297.88H270.27V301.923Z" fill="url(#paint1_linear_102_1481)"/>
<path d="M240.562 310.265L246.023 294H250.902L256.363 310.265H251.948L251.111 307.546H245.814L244.977 310.265H240.562ZM246.906 304.014H250.019L248.509 299.158H248.416L246.906 304.014Z" fill="url(#paint2_linear_102_1481)"/>
<path d="M219.559 310.265V306.942L225.693 297.927H219.744V294H231.014V297.323L224.88 306.338H231.2V310.265H219.559Z" fill="url(#paint3_linear_102_1481)"/>
<path d="M198.152 310.265V306.942L204.286 297.927H198.338V294H209.607V297.323L203.473 306.338H209.793V310.265H198.152Z" fill="url(#paint4_linear_102_1481)"/>
<path d="M181.292 310.544C177.226 310.544 174.717 308.104 174.717 303.898V294H178.899V303.55C178.899 305.664 179.875 306.594 181.292 306.594C182.71 306.594 183.686 305.664 183.686 303.55V294H187.868V303.898C187.868 308.104 185.359 310.544 181.292 310.544Z" fill="url(#paint5_linear_102_1481)"/>
<path d="M152.18 310.265V294H158.221C161.915 294 163.96 295.789 163.96 298.438C163.96 299.971 163.24 301.203 161.822 301.854V301.923C163.658 302.481 164.564 303.759 164.564 305.734C164.564 308.545 162.682 310.265 159.266 310.265H152.18ZM156.269 306.779H158.755C159.754 306.779 160.266 306.315 160.266 305.316C160.266 304.317 159.754 303.805 158.755 303.805H156.269V306.779ZM156.269 300.413H158.384C159.429 300.413 160.01 299.902 160.01 298.972C160.01 298.089 159.429 297.485 158.384 297.485H156.269V300.413Z" fill="url(#paint6_linear_102_1481)"/>
<path d="M264.387 340.143V318H278.527V323.251H270.081V327.395H277.894V332.519H270.081V340.143H264.387Z" fill="url(#paint7_linear_102_1481)"/>
<path d="M235.676 340.143V318H249.816V323.251H241.37V326.509H248.74V331.57H241.37V334.892H249.816V340.143H235.676Z" fill="url(#paint8_linear_102_1481)"/>
<path d="M214.75 340.143V318H220.444V340.143H214.75Z" fill="url(#paint9_linear_102_1481)"/>
<path d="M183.074 340.143V318H190.508C196.74 318 200.219 321.1 200.219 326.035C200.219 329.325 198.669 331.76 195.822 333.026L200.346 340.143H193.798L190.097 334.006H188.768V340.143H183.074ZM188.768 328.787H190.888C193.039 328.787 194.335 327.775 194.335 326.035C194.335 324.295 193.039 323.283 190.888 323.283H188.768V328.787Z" fill="url(#paint10_linear_102_1481)"/>
<path d="M152.109 340.143V318H160.334C165.363 318 168.147 320.436 168.147 324.042C168.147 326.13 167.167 327.806 165.237 328.692V328.787C167.736 329.546 168.97 331.286 168.97 333.975C168.97 337.802 166.407 340.143 161.757 340.143H152.109ZM157.677 335.398H161.061C162.422 335.398 163.118 334.765 163.118 333.405C163.118 332.045 162.422 331.349 161.061 331.349H157.677V335.398ZM157.677 326.731H160.555C161.979 326.731 162.77 326.035 162.77 324.769C162.77 323.567 161.979 322.745 160.555 322.745H157.677V326.731Z" fill="url(#paint11_linear_102_1481)"/>
<path d="M81 313.378H94.723V335.138C94.723 338.928 91.651 342 87.8615 342C84.072 342 81 338.928 81 335.138V313.378Z" fill="url(#paint12_linear_102_1481)"/>
<path d="M138.636 306.222H94.7228V335.139C94.3817 338.777 91.5002 341.659 87.8613 342H130.962C135.2 342 138.636 338.564 138.636 334.325V306.222Z" fill="url(#paint13_linear_102_1481)"/>
<rect x="99.4277" y="319.41" width="13.3309" height="13.5269" fill="#6253F5"/>
<rect x="99.4277" y="319.41" width="13.3309" height="1.96043" fill="#3D2EDE"/>
<rect x="116.48" y="319.508" width="18.232" height="2.94064" fill="url(#paint14_linear_102_1481)"/>
<rect x="116.48" y="319.508" width="18.232" height="0.392086" fill="#CCCCCC"/>
<rect x="116.48" y="324.018" width="12.7428" height="2.94064" fill="url(#paint15_linear_102_1481)"/>
<rect x="116.48" y="324.018" width="12.7428" height="0.392086" fill="#CCCCCC"/>
<rect x="116.48" y="328.526" width="18.428" height="2.94064" fill="url(#paint16_linear_102_1481)"/>
<rect x="116.48" y="328.526" width="18.428" height="0.392086" fill="#CCCCCC"/>
<rect x="116.48" y="333.036" width="12.7428" height="2.94064" fill="url(#paint17_linear_102_1481)"/>
<rect x="116.48" y="332.937" width="12.7428" height="0.392086" fill="#CCCCCC"/>
<path d="M126.374 294.129H105.853C105.364 294.129 104.898 294.29 104.573 294.57L91.375 305.938H140.853L127.655 294.57C127.33 294.289 126.864 294.129 126.374 294.129Z" fill="#6253F5"/>
<path d="M119.888 294.129H113.523L111.564 305.938H121.846L119.888 294.129Z" fill="#6253F5"/>
<path d="M133.818 295.576C133.059 294.66 131.93 294.129 130.739 294.129H126.254L132.129 305.938H142.411L133.818 295.576Z" fill="#6253F5"/>
<path d="M142.409 305.938H91.002L91.0019 310.064C91.0019 310.064 91.0019 313.807 96.1428 314C98.982 314 101.284 312.238 101.284 310.064C101.284 312.238 103.585 314 106.424 314C109.264 314 111.565 312.238 111.565 310.064C111.565 312.238 113.867 314 116.706 314C119.545 314 121.847 312.238 121.847 310.064C121.847 312.238 124.148 314 126.988 314C129.827 314 132.128 312.238 132.128 310.064C132.128 312.238 134.43 314 137.269 314C142.409 313.807 142.409 310.064 142.409 310.064L142.409 305.938Z" fill="#6253F5"/>
<path d="M96.1408 313.81C93.3015 313.81 91 312.048 91 309.874V305.938H101.281V309.874C101.281 312.048 98.9799 313.81 96.1408 313.81Z" fill="#6253F5"/>
<path d="M137.268 313.81C134.428 313.81 132.127 312.048 132.127 309.874V305.938H142.408V309.874C142.409 312.048 140.107 313.81 137.268 313.81Z" fill="#6253F5"/>
<path d="M116.703 313.81C113.864 313.81 111.562 312.048 111.562 309.874V305.938H121.844V309.874C121.844 312.048 119.543 313.81 116.703 313.81Z" fill="#6253F5"/>
<path d="M102.671 294.129C101.481 294.129 100.352 294.66 99.5922 295.576L91 305.938H101.281L107.157 294.129H102.671Z" fill="#6253F5"/>
<path d="M126.374 293H105.853C105.364 293 104.898 293.16 104.573 293.44L91.375 304.809H140.853L127.655 293.44C127.33 293.16 126.864 293 126.374 293Z" fill="white"/>
<path d="M119.888 293H113.523L111.564 304.809H121.846L119.888 293Z" fill="url(#paint18_linear_102_1481)"/>
<path d="M133.818 294.447C133.059 293.53 131.93 293 130.739 293H126.254L132.129 304.809H142.411L133.818 294.447Z" fill="url(#paint19_linear_102_1481)"/>
<path d="M142.409 304.809H91.002V308.745C91.002 308.745 91.002 312.488 96.1428 312.681C98.982 312.681 101.284 310.919 101.284 308.745C101.284 310.919 103.585 312.681 106.424 312.681C109.264 312.681 111.565 310.919 111.565 308.745C111.565 310.919 113.867 312.681 116.706 312.681C119.545 312.681 121.847 310.919 121.847 308.745C121.847 310.919 124.148 312.681 126.988 312.681C129.827 312.681 132.128 310.919 132.128 308.745C132.128 310.919 134.43 312.681 137.269 312.681C142.409 312.488 142.409 308.745 142.409 308.745V304.809Z" fill="url(#paint20_linear_102_1481)"/>
<path d="M96.1408 312.681C93.3015 312.681 91 310.919 91 308.745V304.808H101.281V308.745C101.281 310.919 98.9799 312.681 96.1408 312.681Z" fill="url(#paint21_linear_102_1481)"/>
<path d="M137.268 312.681C134.428 312.681 132.127 310.919 132.127 308.745V304.808H142.408V308.745C142.409 310.919 140.107 312.681 137.268 312.681Z" fill="url(#paint22_linear_102_1481)"/>
<path d="M116.703 312.681C113.864 312.681 111.562 310.919 111.562 308.745V304.808H121.844V308.745C121.844 310.919 119.543 312.681 116.703 312.681Z" fill="url(#paint23_linear_102_1481)"/>
<path d="M102.671 293C101.481 293 100.352 293.53 99.5922 294.447L91 304.809H101.281L107.157 293H102.671Z" fill="url(#paint24_linear_102_1481)"/>
<path d="M105.183 353.824C105.106 354.259 104.924 354.62 104.637 354.907C104.356 355.188 104.013 355.391 103.606 355.517C103.95 355.573 104.23 355.742 104.447 356.022C104.665 356.295 104.773 356.621 104.773 357C104.773 357.112 104.763 357.221 104.742 357.326C104.679 357.698 104.524 358.034 104.279 358.336C104.041 358.63 103.725 358.865 103.333 359.04C102.94 359.208 102.498 359.293 102.008 359.293H99.2734L100.577 351.963H103.206C103.865 351.963 104.363 352.103 104.7 352.383C105.043 352.664 105.215 353.028 105.215 353.477C105.215 353.589 105.205 353.705 105.183 353.824ZM104.195 353.94C104.209 353.877 104.216 353.789 104.216 353.677C104.216 353.375 104.111 353.141 103.901 352.972C103.69 352.804 103.385 352.72 102.986 352.72H101.398L100.967 355.149H102.575C103.017 355.149 103.382 355.044 103.669 354.834C103.957 354.616 104.132 354.318 104.195 353.94ZM103.795 357.231C103.816 357.133 103.827 357.042 103.827 356.958C103.827 356.635 103.708 356.38 103.469 356.19C103.231 356.001 102.905 355.906 102.491 355.906H100.83L100.367 358.535H102.06C102.53 358.535 102.919 358.42 103.227 358.188C103.536 357.957 103.725 357.638 103.795 357.231ZM112.73 353.53L111.71 359.293H110.753L110.9 358.451C110.669 358.746 110.374 358.974 110.017 359.135C109.659 359.296 109.288 359.377 108.902 359.377C108.299 359.377 107.815 359.215 107.451 358.893C107.093 358.563 106.915 358.094 106.915 357.484C106.915 357.33 106.932 357.137 106.967 356.905L107.567 353.53H108.513L107.945 356.779C107.917 356.926 107.903 357.081 107.903 357.242C107.903 357.67 108.019 357.996 108.25 358.22C108.489 358.437 108.818 358.546 109.239 358.546C109.743 358.546 110.171 358.388 110.522 358.073C110.879 357.757 111.107 357.298 111.205 356.695V356.727L111.773 353.53H112.73ZM116.232 359.387C115.629 359.387 115.135 359.243 114.749 358.956C114.363 358.669 114.171 358.283 114.171 357.799C114.171 357.708 114.174 357.641 114.181 357.599H115.117C115.089 357.901 115.177 358.146 115.38 358.336C115.59 358.525 115.892 358.619 116.284 358.619C116.677 358.619 116.992 358.546 117.231 358.399C117.476 358.244 117.599 358.031 117.599 357.757C117.599 357.526 117.501 357.344 117.304 357.21C117.108 357.077 116.807 356.933 116.4 356.779C116.042 356.646 115.748 356.52 115.517 356.401C115.285 356.281 115.089 356.117 114.928 355.906C114.766 355.689 114.686 355.416 114.686 355.086C114.686 354.764 114.777 354.476 114.959 354.224C115.149 353.971 115.408 353.779 115.737 353.645C116.074 353.505 116.456 353.435 116.884 353.435C117.473 353.435 117.956 353.582 118.335 353.877C118.713 354.171 118.903 354.557 118.903 355.033C118.903 355.125 118.899 355.195 118.892 355.244H117.977L117.988 355.118C117.988 354.837 117.879 354.616 117.662 354.455C117.452 354.287 117.171 354.203 116.821 354.203C116.477 354.203 116.193 354.28 115.969 354.434C115.751 354.588 115.643 354.795 115.643 355.055C115.643 355.3 115.744 355.493 115.948 355.633C116.151 355.773 116.467 355.927 116.894 356.096C117.252 356.236 117.539 356.366 117.757 356.485C117.974 356.597 118.16 356.755 118.314 356.958C118.468 357.161 118.545 357.417 118.545 357.726C118.545 358.062 118.444 358.357 118.24 358.609C118.044 358.861 117.771 359.054 117.42 359.187C117.069 359.321 116.673 359.387 116.232 359.387ZM122.245 352.594C122.091 352.594 121.961 352.545 121.856 352.447C121.758 352.341 121.708 352.212 121.708 352.057C121.708 351.847 121.786 351.668 121.94 351.521C122.094 351.367 122.273 351.29 122.476 351.29C122.637 351.29 122.767 351.339 122.865 351.437C122.963 351.535 123.012 351.665 123.012 351.826C123.012 352.036 122.935 352.219 122.781 352.373C122.627 352.52 122.448 352.594 122.245 352.594ZM122.55 353.53L121.53 359.293H120.573L121.593 353.53H122.55ZM127.886 353.425C128.482 353.425 128.959 353.586 129.316 353.908C129.674 354.224 129.852 354.686 129.852 355.296C129.852 355.521 129.835 355.721 129.8 355.896L129.2 359.293H128.254L128.832 356.033C128.86 355.885 128.874 355.731 128.874 355.57C128.874 355.142 128.755 354.816 128.517 354.592C128.286 354.367 127.96 354.255 127.539 354.255C127.034 354.255 126.603 354.413 126.245 354.729C125.895 355.044 125.667 355.503 125.562 356.106V356.085L124.994 359.293H124.037L125.057 353.53H126.014L125.867 354.36C126.105 354.059 126.403 353.828 126.761 353.666C127.118 353.505 127.493 353.425 127.886 353.425ZM135.163 353.435C135.647 353.435 136.064 353.53 136.414 353.719C136.772 353.901 137.042 354.161 137.224 354.497C137.413 354.827 137.508 355.205 137.508 355.633C137.508 355.78 137.49 355.959 137.455 356.169C137.427 356.351 137.382 356.541 137.319 356.737H132.713C132.699 356.877 132.692 356.979 132.692 357.042C132.692 357.526 132.835 357.904 133.123 358.178C133.417 358.444 133.799 358.577 134.269 358.577C134.683 358.577 135.044 358.483 135.352 358.293C135.668 358.097 135.906 357.838 136.067 357.515H137.098C136.845 358.069 136.456 358.521 135.931 358.872C135.412 359.215 134.809 359.387 134.122 359.387C133.4 359.387 132.818 359.18 132.376 358.767C131.941 358.346 131.724 357.775 131.724 357.053C131.724 356.849 131.745 356.632 131.787 356.401C131.892 355.805 132.106 355.282 132.429 354.834C132.751 354.385 133.147 354.041 133.617 353.803C134.094 353.558 134.609 353.435 135.163 353.435ZM136.488 356.043C136.509 355.903 136.519 355.773 136.519 355.654C136.519 355.205 136.376 354.858 136.088 354.613C135.808 354.367 135.44 354.245 134.984 354.245C134.493 354.245 134.048 354.406 133.649 354.729C133.249 355.044 132.979 355.482 132.839 356.043H136.488ZM141.067 359.387C140.464 359.387 139.97 359.243 139.584 358.956C139.199 358.669 139.006 358.283 139.006 357.799C139.006 357.708 139.009 357.641 139.017 357.599H139.952C139.924 357.901 140.012 358.146 140.215 358.336C140.426 358.525 140.727 358.619 141.12 358.619C141.512 358.619 141.828 358.546 142.066 358.399C142.312 358.244 142.434 358.031 142.434 357.757C142.434 357.526 142.336 357.344 142.14 357.21C141.943 357.077 141.642 356.933 141.235 356.779C140.878 356.646 140.583 356.52 140.352 356.401C140.121 356.281 139.924 356.117 139.763 355.906C139.602 355.689 139.521 355.416 139.521 355.086C139.521 354.764 139.612 354.476 139.795 354.224C139.984 353.971 140.243 353.779 140.573 353.645C140.909 353.505 141.291 353.435 141.719 353.435C142.308 353.435 142.792 353.582 143.17 353.877C143.549 354.171 143.738 354.557 143.738 355.033C143.738 355.125 143.735 355.195 143.728 355.244H142.813L142.823 355.118C142.823 354.837 142.715 354.616 142.497 354.455C142.287 354.287 142.007 354.203 141.656 354.203C141.313 354.203 141.029 354.28 140.804 354.434C140.587 354.588 140.478 354.795 140.478 355.055C140.478 355.3 140.58 355.493 140.783 355.633C140.987 355.773 141.302 355.927 141.73 356.096C142.087 356.236 142.375 356.366 142.592 356.485C142.809 356.597 142.995 356.755 143.149 356.958C143.304 357.161 143.381 357.417 143.381 357.726C143.381 358.062 143.279 358.357 143.076 358.609C142.879 358.861 142.606 359.054 142.255 359.187C141.905 359.321 141.509 359.387 141.067 359.387ZM147.438 359.387C146.835 359.387 146.341 359.243 145.955 358.956C145.569 358.669 145.377 358.283 145.377 357.799C145.377 357.708 145.38 357.641 145.387 357.599H146.323C146.295 357.901 146.383 358.146 146.586 358.336C146.796 358.525 147.098 358.619 147.49 358.619C147.883 358.619 148.198 358.546 148.437 358.399C148.682 358.244 148.805 358.031 148.805 357.757C148.805 357.526 148.707 357.344 148.51 357.21C148.314 357.077 148.013 356.933 147.606 356.779C147.248 356.646 146.954 356.52 146.723 356.401C146.491 356.281 146.295 356.117 146.134 355.906C145.973 355.689 145.892 355.416 145.892 355.086C145.892 354.764 145.983 354.476 146.165 354.224C146.355 353.971 146.614 353.779 146.944 353.645C147.28 353.505 147.662 353.435 148.09 353.435C148.679 353.435 149.162 353.582 149.541 353.877C149.92 354.171 150.109 354.557 150.109 355.033C150.109 355.125 150.105 355.195 150.098 355.244H149.183L149.194 355.118C149.194 354.837 149.085 354.616 148.868 354.455C148.658 354.287 148.377 354.203 148.027 354.203C147.683 354.203 147.399 354.28 147.175 354.434C146.958 354.588 146.849 354.795 146.849 355.055C146.849 355.3 146.951 355.493 147.154 355.633C147.357 355.773 147.673 355.927 148.1 356.096C148.458 356.236 148.745 356.366 148.963 356.485C149.18 356.597 149.366 356.755 149.52 356.958C149.674 357.161 149.751 357.417 149.751 357.726C149.751 358.062 149.65 358.357 149.446 358.609C149.25 358.861 148.977 359.054 148.626 359.187C148.276 359.321 147.879 359.387 147.438 359.387ZM158.101 356.411L160.309 359.293H159.005L157.197 356.758L156.744 359.293H155.787L157.165 351.511H158.122L157.312 356.075L159.983 353.53H161.308L158.101 356.411ZM163.748 352.594C163.594 352.594 163.464 352.545 163.359 352.447C163.261 352.341 163.212 352.212 163.212 352.057C163.212 351.847 163.289 351.668 163.443 351.521C163.597 351.367 163.776 351.29 163.979 351.29C164.14 351.29 164.27 351.339 164.368 351.437C164.466 351.535 164.516 351.665 164.516 351.826C164.516 352.036 164.438 352.219 164.284 352.373C164.13 352.52 163.951 352.594 163.748 352.594ZM164.053 353.53L163.033 359.293H162.076L163.096 353.53H164.053ZM175.459 353.824C175.382 354.259 175.199 354.62 174.912 354.907C174.631 355.188 174.288 355.391 173.881 355.517C174.225 355.573 174.505 355.742 174.723 356.022C174.94 356.295 175.049 356.621 175.049 357C175.049 357.112 175.038 357.221 175.017 357.326C174.954 357.698 174.8 358.034 174.554 358.336C174.316 358.63 174.001 358.865 173.608 359.04C173.215 359.208 172.774 359.293 172.283 359.293H169.549L170.853 351.963H173.482C174.141 351.963 174.638 352.103 174.975 352.383C175.319 352.664 175.49 353.028 175.49 353.477C175.49 353.589 175.48 353.705 175.459 353.824ZM174.47 353.94C174.484 353.877 174.491 353.789 174.491 353.677C174.491 353.375 174.386 353.141 174.176 352.972C173.965 352.804 173.66 352.72 173.261 352.72H171.673L171.242 355.149H172.851C173.292 355.149 173.657 355.044 173.944 354.834C174.232 354.616 174.407 354.318 174.47 353.94ZM174.071 357.231C174.092 357.133 174.102 357.042 174.102 356.958C174.102 356.635 173.983 356.38 173.745 356.19C173.506 356.001 173.18 355.906 172.767 355.906H171.105L170.642 358.535H172.335C172.805 358.535 173.194 358.42 173.503 358.188C173.811 357.957 174.001 357.638 174.071 357.231ZM177.022 356.39C177.127 355.801 177.337 355.286 177.653 354.844C177.975 354.395 178.364 354.048 178.82 353.803C179.283 353.558 179.773 353.435 180.292 353.435C180.797 353.435 181.214 353.544 181.544 353.761C181.873 353.978 182.101 354.252 182.227 354.581L182.416 353.53H183.384L182.364 359.293H181.396L181.596 358.22C181.344 358.556 181.011 358.837 180.597 359.061C180.183 359.278 179.728 359.387 179.23 359.387C178.781 359.387 178.385 359.293 178.042 359.103C177.698 358.907 177.432 358.63 177.242 358.272C177.053 357.915 176.959 357.501 176.959 357.032C176.959 356.821 176.98 356.607 177.022 356.39ZM181.912 356.401C181.94 356.253 181.954 356.096 181.954 355.927C181.954 355.416 181.799 355.012 181.491 354.718C181.189 354.417 180.804 354.266 180.334 354.266C179.977 354.266 179.633 354.35 179.304 354.518C178.981 354.686 178.704 354.932 178.473 355.254C178.241 355.577 178.087 355.955 178.01 356.39C177.982 356.537 177.968 356.699 177.968 356.874C177.968 357.393 178.119 357.803 178.42 358.104C178.722 358.399 179.107 358.546 179.577 358.546C179.935 358.546 180.275 358.462 180.597 358.293C180.927 358.118 181.207 357.869 181.438 357.547C181.677 357.217 181.834 356.835 181.912 356.401ZM186.309 357.715C186.288 357.82 186.277 357.911 186.277 357.989C186.277 358.164 186.33 358.29 186.435 358.367C186.547 358.444 186.726 358.483 186.971 358.483H187.676L187.528 359.293H186.666C186.21 359.293 185.867 359.205 185.636 359.03C185.411 358.854 185.299 358.567 185.299 358.167C185.299 358.013 185.313 357.862 185.341 357.715L185.94 354.318H185.204L185.341 353.53H186.088L186.34 352.078H187.308L187.055 353.53H188.548L188.412 354.318H186.908L186.309 357.715ZM193.087 353.435C193.571 353.435 193.988 353.53 194.339 353.719C194.696 353.901 194.966 354.161 195.148 354.497C195.338 354.827 195.432 355.205 195.432 355.633C195.432 355.78 195.415 355.959 195.38 356.169C195.352 356.351 195.306 356.541 195.243 356.737H190.637C190.623 356.877 190.616 356.979 190.616 357.042C190.616 357.526 190.76 357.904 191.047 358.178C191.341 358.444 191.724 358.577 192.193 358.577C192.607 358.577 192.968 358.483 193.276 358.293C193.592 358.097 193.83 357.838 193.992 357.515H195.022C194.77 358.069 194.381 358.521 193.855 358.872C193.336 359.215 192.733 359.387 192.046 359.387C191.324 359.387 190.742 359.18 190.3 358.767C189.866 358.346 189.648 357.775 189.648 357.053C189.648 356.849 189.669 356.632 189.711 356.401C189.817 355.805 190.03 355.282 190.353 354.834C190.675 354.385 191.072 354.041 191.541 353.803C192.018 353.558 192.533 353.435 193.087 353.435ZM194.412 356.043C194.433 355.903 194.444 355.773 194.444 355.654C194.444 355.205 194.3 354.858 194.013 354.613C193.732 354.367 193.364 354.245 192.908 354.245C192.418 354.245 191.972 354.406 191.573 354.729C191.173 355.044 190.903 355.482 190.763 356.043H194.412ZM198.634 352.594C198.48 352.594 198.35 352.545 198.245 352.447C198.147 352.341 198.098 352.212 198.098 352.057C198.098 351.847 198.175 351.668 198.329 351.521C198.483 351.367 198.662 351.29 198.865 351.29C199.026 351.29 199.156 351.339 199.254 351.437C199.352 351.535 199.402 351.665 199.402 351.826C199.402 352.036 199.324 352.219 199.17 352.373C199.016 352.52 198.837 352.594 198.634 352.594ZM198.939 353.53L197.919 359.293H196.962L197.982 353.53H198.939ZM204.275 353.425C204.871 353.425 205.348 353.586 205.705 353.908C206.063 354.224 206.242 354.686 206.242 355.296C206.242 355.521 206.224 355.721 206.189 355.896L205.59 359.293H204.643L205.221 356.033C205.25 355.885 205.264 355.731 205.264 355.57C205.264 355.142 205.144 354.816 204.906 354.592C204.675 354.367 204.349 354.255 203.928 354.255C203.423 354.255 202.992 354.413 202.635 354.729C202.284 355.044 202.056 355.503 201.951 356.106V356.085L201.383 359.293H200.426L201.446 353.53H202.403L202.256 354.36C202.494 354.059 202.792 353.828 203.15 353.666C203.507 353.505 203.882 353.425 204.275 353.425ZM217.948 353.824C217.871 354.259 217.688 354.62 217.401 354.907C217.12 355.188 216.777 355.391 216.37 355.517C216.714 355.573 216.994 355.742 217.212 356.022C217.429 356.295 217.538 356.621 217.538 357C217.538 357.112 217.527 357.221 217.506 357.326C217.443 357.698 217.289 358.034 217.043 358.336C216.805 358.63 216.49 358.865 216.097 359.04C215.704 359.208 215.263 359.293 214.772 359.293H212.038L213.342 351.963H215.971C216.63 351.963 217.127 352.103 217.464 352.383C217.808 352.664 217.979 353.028 217.979 353.477C217.979 353.589 217.969 353.705 217.948 353.824ZM216.959 353.94C216.973 353.877 216.98 353.789 216.98 353.677C216.98 353.375 216.875 353.141 216.665 352.972C216.454 352.804 216.149 352.72 215.75 352.72H214.162L213.731 355.149H215.34C215.781 355.149 216.146 355.044 216.433 354.834C216.721 354.616 216.896 354.318 216.959 353.94ZM216.56 357.231C216.581 357.133 216.591 357.042 216.591 356.958C216.591 356.635 216.472 356.38 216.234 356.19C215.995 356.001 215.669 355.906 215.256 355.906H213.594L213.131 358.535H214.824C215.294 358.535 215.683 358.42 215.992 358.188C216.3 357.957 216.49 357.638 216.56 357.231ZM221.151 354.623C221.382 354.245 221.673 353.95 222.024 353.74C222.374 353.53 222.774 353.425 223.223 353.425L223.044 354.413H222.792C222.294 354.413 221.877 354.546 221.54 354.813C221.211 355.079 220.99 355.528 220.878 356.159L220.32 359.293H219.363L220.383 353.53H221.34L221.151 354.623ZM225.835 352.594C225.681 352.594 225.551 352.545 225.446 352.447C225.348 352.341 225.298 352.212 225.298 352.057C225.298 351.847 225.376 351.668 225.53 351.521C225.684 351.367 225.863 351.29 226.066 351.29C226.227 351.29 226.357 351.339 226.455 351.437C226.553 351.535 226.602 351.665 226.602 351.826C226.602 352.036 226.525 352.219 226.371 352.373C226.217 352.52 226.038 352.594 225.835 352.594ZM226.14 353.53L225.12 359.293H224.163L225.183 353.53H226.14ZM231.15 353.435C231.634 353.435 232.051 353.53 232.401 353.719C232.759 353.901 233.029 354.161 233.211 354.497C233.4 354.827 233.495 355.205 233.495 355.633C233.495 355.78 233.478 355.959 233.442 356.169C233.414 356.351 233.369 356.541 233.306 356.737H228.7C228.686 356.877 228.679 356.979 228.679 357.042C228.679 357.526 228.822 357.904 229.11 358.178C229.404 358.444 229.786 358.577 230.256 358.577C230.67 358.577 231.031 358.483 231.339 358.293C231.655 358.097 231.893 357.838 232.054 357.515H233.085C232.833 358.069 232.443 358.521 231.918 358.872C231.399 359.215 230.796 359.387 230.109 359.387C229.387 359.387 228.805 359.18 228.363 358.767C227.928 358.346 227.711 357.775 227.711 357.053C227.711 356.849 227.732 356.632 227.774 356.401C227.879 355.805 228.093 355.282 228.416 354.834C228.738 354.385 229.134 354.041 229.604 353.803C230.081 353.558 230.596 353.435 231.15 353.435ZM232.475 356.043C232.496 355.903 232.507 355.773 232.507 355.654C232.507 355.205 232.363 354.858 232.075 354.613C231.795 354.367 231.427 354.245 230.971 354.245C230.48 354.245 230.035 354.406 229.636 354.729C229.236 355.044 228.966 355.482 228.826 356.043H232.475ZM238.59 352.057C238.162 352.057 237.846 352.142 237.643 352.31C237.447 352.471 237.317 352.741 237.254 353.12L237.18 353.53H238.39L238.253 354.318H237.044L236.16 359.293H235.203L236.076 354.318H235.34L235.477 353.53H236.213L236.287 353.12C236.406 352.475 236.658 352.005 237.044 351.71C237.429 351.409 237.99 351.258 238.726 351.258L238.59 352.057ZM251.342 353.425C251.931 353.425 252.4 353.586 252.751 353.908C253.108 354.224 253.287 354.686 253.287 355.296C253.287 355.521 253.27 355.721 253.235 355.896L252.635 359.293H251.689L252.267 356.033C252.295 355.885 252.309 355.728 252.309 355.559C252.309 355.132 252.193 354.809 251.962 354.592C251.738 354.367 251.419 354.255 251.005 354.255C250.528 354.255 250.118 354.403 249.775 354.697C249.438 354.984 249.207 355.402 249.081 355.948L248.481 359.293H247.535L248.113 356.033C248.141 355.871 248.155 355.71 248.155 355.549C248.155 355.128 248.04 354.809 247.808 354.592C247.584 354.367 247.265 354.255 246.851 354.255C246.353 354.255 245.929 354.417 245.579 354.739C245.228 355.055 245 355.514 244.895 356.117V356.096L244.327 359.293H243.37L244.39 353.53H245.347L245.2 354.36C245.439 354.059 245.733 353.828 246.084 353.666C246.434 353.505 246.802 353.425 247.188 353.425C247.672 353.425 248.078 353.533 248.408 353.751C248.744 353.968 248.965 354.287 249.07 354.707C249.309 354.301 249.631 353.985 250.038 353.761C250.451 353.537 250.886 353.425 251.342 353.425ZM258.604 353.435C259.088 353.435 259.505 353.53 259.856 353.719C260.213 353.901 260.483 354.161 260.665 354.497C260.855 354.827 260.949 355.205 260.949 355.633C260.949 355.78 260.932 355.959 260.897 356.169C260.869 356.351 260.823 356.541 260.76 356.737H256.154C256.14 356.877 256.133 356.979 256.133 357.042C256.133 357.526 256.277 357.904 256.564 358.178C256.858 358.444 257.241 358.577 257.71 358.577C258.124 358.577 258.485 358.483 258.793 358.293C259.109 358.097 259.347 357.838 259.509 357.515H260.539C260.287 358.069 259.898 358.521 259.372 358.872C258.853 359.215 258.25 359.387 257.563 359.387C256.841 359.387 256.259 359.18 255.817 358.767C255.383 358.346 255.165 357.775 255.165 357.053C255.165 356.849 255.186 356.632 255.228 356.401C255.334 355.805 255.547 355.282 255.87 354.834C256.192 354.385 256.589 354.041 257.058 353.803C257.535 353.558 258.05 353.435 258.604 353.435ZM259.929 356.043C259.95 355.903 259.961 355.773 259.961 355.654C259.961 355.205 259.817 354.858 259.53 354.613C259.249 354.367 258.881 354.245 258.425 354.245C257.935 354.245 257.489 354.406 257.09 354.729C256.69 355.044 256.42 355.482 256.28 356.043H259.929Z" fill="white"/>
<path d="M95 356.5C95.2761 356.5 95.5 356.276 95.5 356C95.5 355.724 95.2761 355.5 95 355.5V356.5ZM63 356.5H95V355.5H63V356.5Z" fill="url(#paint25_linear_102_1481)"/>
<path d="M266 355.5C265.724 355.5 265.5 355.724 265.5 356C265.5 356.276 265.724 356.5 266 356.5L266 355.5ZM298 355.5L266 355.5L266 356.5L298 356.5L298 355.5Z" fill="url(#paint26_linear_102_1481)"/>
</g>
<defs>
<linearGradient id="paint0_linear_102_1481" x1="-198.757" y1="-137.106" x2="-198.757" y2="1546.26" gradientUnits="userSpaceOnUse">
<stop stop-color="white"/>
<stop offset="1" stop-color="#E8F0FF"/>
</linearGradient>
<linearGradient id="paint1_linear_102_1481" x1="274.39" y1="298.93" x2="281.16" y2="331.113" gradientUnits="userSpaceOnUse">
<stop stop-color="white"/>
<stop offset="1" stop-color="#6253F5"/>
</linearGradient>
<linearGradient id="paint2_linear_102_1481" x1="250.902" y1="298.93" x2="256.421" y2="331.605" gradientUnits="userSpaceOnUse">
<stop stop-color="white"/>
<stop offset="1" stop-color="#6253F5"/>
</linearGradient>
<linearGradient id="paint3_linear_102_1481" x1="227.177" y1="298.93" x2="234.497" y2="330.859" gradientUnits="userSpaceOnUse">
<stop stop-color="white"/>
<stop offset="1" stop-color="#6253F5"/>
</linearGradient>
<linearGradient id="paint4_linear_102_1481" x1="205.77" y1="298.93" x2="213.09" y2="330.859" gradientUnits="userSpaceOnUse">
<stop stop-color="white"/>
<stop offset="1" stop-color="#6253F5"/>
</linearGradient>
<linearGradient id="paint5_linear_102_1481" x1="183.323" y1="299.015" x2="190.091" y2="331.801" gradientUnits="userSpaceOnUse">
<stop stop-color="white"/>
<stop offset="1" stop-color="#6253F5"/>
</linearGradient>
<linearGradient id="paint6_linear_102_1481" x1="160.284" y1="298.93" x2="167.205" y2="331.046" gradientUnits="userSpaceOnUse">
<stop stop-color="white"/>
<stop offset="1" stop-color="#6253F5"/>
</linearGradient>
<linearGradient id="paint7_linear_102_1481" x1="273.64" y1="324.712" x2="284.668" y2="367.631" gradientUnits="userSpaceOnUse">
<stop stop-color="white"/>
<stop offset="1" stop-color="#6253F5"/>
</linearGradient>
<linearGradient id="paint8_linear_102_1481" x1="244.929" y1="324.712" x2="255.958" y2="367.631" gradientUnits="userSpaceOnUse">
<stop stop-color="white"/>
<stop offset="1" stop-color="#6253F5"/>
</linearGradient>
<linearGradient id="paint9_linear_102_1481" x1="218.476" y1="324.712" x2="239.224" y2="357.226" gradientUnits="userSpaceOnUse">
<stop stop-color="white"/>
<stop offset="1" stop-color="#6253F5"/>
</linearGradient>
<linearGradient id="paint10_linear_102_1481" x1="194.377" y1="324.712" x2="203.594" y2="368.526" gradientUnits="userSpaceOnUse">
<stop stop-color="white"/>
<stop offset="1" stop-color="#6253F5"/>
</linearGradient>
<linearGradient id="paint11_linear_102_1481" x1="163.143" y1="324.712" x2="172.565" y2="368.435" gradientUnits="userSpaceOnUse">
<stop stop-color="white"/>
<stop offset="1" stop-color="#6253F5"/>
</linearGradient>
<linearGradient id="paint12_linear_102_1481" x1="94.5418" y1="320.032" x2="85.5588" y2="343.403" gradientUnits="userSpaceOnUse">
<stop stop-color="#6253F5" stop-opacity="0"/>
<stop offset="1" stop-color="white"/>
</linearGradient>
<linearGradient id="paint13_linear_102_1481" x1="97.3463" y1="336.891" x2="97.3463" y2="348.13" gradientUnits="userSpaceOnUse">
<stop stop-color="white"/>
<stop offset="0.394281" stop-color="#857CDF"/>
<stop offset="0.817008" stop-color="#6253F5"/>
</linearGradient>
<linearGradient id="paint14_linear_102_1481" x1="125.596" y1="319.508" x2="125.596" y2="322.449" gradientUnits="userSpaceOnUse">
<stop stop-color="#D9D9D9"/>
<stop offset="1" stop-color="#F4F6F8"/>
</linearGradient>
<linearGradient id="paint15_linear_102_1481" x1="122.852" y1="324.018" x2="122.852" y2="326.958" gradientUnits="userSpaceOnUse">
<stop stop-color="#D9D9D9"/>
<stop offset="1" stop-color="#F4F6F8"/>
</linearGradient>
<linearGradient id="paint16_linear_102_1481" x1="125.694" y1="328.526" x2="125.694" y2="331.467" gradientUnits="userSpaceOnUse">
<stop stop-color="#D9D9D9"/>
<stop offset="1" stop-color="#F4F6F8"/>
</linearGradient>
<linearGradient id="paint17_linear_102_1481" x1="122.852" y1="333.036" x2="122.852" y2="335.976" gradientUnits="userSpaceOnUse">
<stop stop-color="#D9D9D9"/>
<stop offset="1" stop-color="#F4F6F8"/>
</linearGradient>
<linearGradient id="paint18_linear_102_1481" x1="116.705" y1="293" x2="116.705" y2="304.809" gradientUnits="userSpaceOnUse">
<stop stop-color="white"/>
<stop offset="1" stop-color="#6253F5"/>
</linearGradient>
<linearGradient id="paint19_linear_102_1481" x1="126.254" y1="298.904" x2="142.411" y2="298.904" gradientUnits="userSpaceOnUse">
<stop stop-color="white"/>
<stop offset="1" stop-color="#6253F5"/>
</linearGradient>
<linearGradient id="paint20_linear_102_1481" x1="142.409" y1="308.745" x2="91.002" y2="308.745" gradientUnits="userSpaceOnUse">
<stop stop-color="white"/>
<stop offset="1" stop-color="#B7B2FF"/>
</linearGradient>
<linearGradient id="paint21_linear_102_1481" x1="96.1407" y1="304.808" x2="96.1407" y2="312.681" gradientUnits="userSpaceOnUse">
<stop stop-color="#6253F5"/>
<stop offset="1" stop-color="white"/>
</linearGradient>
<linearGradient id="paint22_linear_102_1481" x1="137.268" y1="304.808" x2="137.268" y2="312.681" gradientUnits="userSpaceOnUse">
<stop stop-color="#6253F5"/>
<stop offset="1" stop-color="white"/>
</linearGradient>
<linearGradient id="paint23_linear_102_1481" x1="116.703" y1="304.808" x2="116.703" y2="312.681" gradientUnits="userSpaceOnUse">
<stop stop-color="#6253F5"/>
<stop offset="1" stop-color="white"/>
</linearGradient>
<linearGradient id="paint24_linear_102_1481" x1="107.157" y1="298.904" x2="91" y2="298.904" gradientUnits="userSpaceOnUse">
<stop stop-color="white"/>
<stop offset="1" stop-color="#6253F5"/>
</linearGradient>
<linearGradient id="paint25_linear_102_1481" x1="95" y1="356.75" x2="63" y2="356.75" gradientUnits="userSpaceOnUse">
<stop stop-color="white"/>
<stop offset="1" stop-color="#6253F5"/>
</linearGradient>
<linearGradient id="paint26_linear_102_1481" x1="266" y1="355.25" x2="298" y2="355.25" gradientUnits="userSpaceOnUse">
<stop stop-color="white"/>
<stop offset="1" stop-color="#6253F5"/>
</linearGradient>
<clipPath id="clip0_102_1481">
<rect width="360" height="800" fill="white"/>
</clipPath>
</defs>
</svg>
