<svg width="28" height="31" viewBox="0 0 28 31" fill="none" xmlns="http://www.w3.org/2000/svg">
<g id="Group 1000009349">
<g id="Group 1000009347">
<path id="Vector 8 (Stroke)" fill-rule="evenodd" clip-rule="evenodd" d="M10.2619 3.39743C3.94649 6.09742 3.60024 11.4107 4.14943 13.6397L4.1789 13.7594V13.8826C4.1789 14.4302 4.02509 15.0188 3.87365 15.4761C3.72176 15.9347 3.54098 16.3526 3.40889 16.6205L3.18921 17.1331C2.44938 18.8593 2.06496 20.4312 2.65875 21.6813C3.58866 23.6389 5.71643 23.949 7.06439 23.7169L21.1117 20.0792C23.2686 19.1814 24.3713 18.0732 24.9087 17.0552C25.4531 16.0239 25.4805 14.9664 25.2773 14.0746C25.2317 13.8747 25.0976 13.6684 24.7719 13.3918C24.6093 13.2538 24.4241 13.1187 24.205 12.9623C24.1822 12.946 24.159 12.9294 24.1353 12.9126C23.943 12.7756 23.7244 12.6199 23.5186 12.4554C22.6642 11.7727 22.0581 10.7965 21.6431 9.89131C21.227 8.98372 20.9638 8.06146 20.8349 7.37793C20.2632 4.87345 18.5304 3.68446 16.4199 3.19737C14.2813 2.70377 11.8599 2.97513 10.2619 3.39743ZM16.8764 1.21932C19.5213 1.82976 22.0334 3.46528 22.8192 6.94877L22.8234 6.96754L22.8269 6.98645C22.9269 7.52391 23.1441 8.29411 23.4885 9.04524C23.8381 9.80774 24.2798 10.4652 24.7858 10.8694C24.945 10.9967 25.1162 11.1187 25.3151 11.2605C25.3378 11.2767 25.361 11.2932 25.3845 11.31C25.6022 11.4654 25.851 11.6449 26.0859 11.8444C26.5551 12.2428 27.0696 12.8032 27.2566 13.6235C27.5453 14.8902 27.518 16.4609 26.704 18.0029C25.8882 19.5482 24.3447 20.9468 21.8197 21.9832L21.7557 22.0094L7.49819 25.7016L7.46102 25.7083C5.72599 26.0223 2.34248 25.7467 0.825064 22.5523C-0.191526 20.4122 0.584686 18.0568 1.3233 16.3334L1.5659 15.7673L1.57926 15.7406C1.67174 15.5557 1.82184 15.2144 1.94652 14.8379C2.05874 14.499 2.12753 14.1988 2.14464 13.9819C1.47094 10.9681 2.13755 4.6229 9.53602 1.50017L9.59924 1.47349L9.66548 1.45555C11.4709 0.966783 14.2845 0.621083 16.8764 1.21932Z" fill="#DFE5FA"/>
<path id="Vector 9 (Stroke)" fill-rule="evenodd" clip-rule="evenodd" d="M19.7165 24.8313C20.2099 25.0975 20.394 25.7133 20.1278 26.2066C18.7594 28.7422 16.9411 29.8629 15.1238 30.0823C13.3765 30.2933 11.803 29.6498 10.8696 28.995C10.4107 28.673 10.2997 28.04 10.6217 27.5811C10.9437 27.1222 11.5767 27.0112 12.0356 27.3332C12.6655 27.7751 13.7461 28.2039 14.8805 28.0669C15.9448 27.9384 17.2358 27.2909 18.3412 25.2425C18.6075 24.7492 19.2232 24.5651 19.7165 24.8313Z" fill="#DFE5FA"/>
</g>
<g id="Group 1000009346">
<path id="Vector 8 (Stroke)_2" fill-rule="evenodd" clip-rule="evenodd" d="M9.92404 2.49515C3.6086 5.19513 3.26235 10.5084 3.81154 12.7375L3.84101 12.8571V12.9803C3.84101 13.528 3.6872 14.1165 3.53576 14.5738C3.38387 15.0325 3.2031 15.4503 3.071 15.7182L2.85132 16.2308C2.11149 17.957 1.72707 19.529 2.32086 20.779C3.25077 22.7366 5.37852 23.0467 6.72647 22.8146L20.7738 19.1769C22.9307 18.2791 24.0334 17.171 24.5709 16.1529C25.1153 15.1217 25.1426 14.0641 24.9394 13.1723C24.8938 12.9724 24.7597 12.7661 24.434 12.4895C24.2714 12.3515 24.0862 12.2164 23.8671 12.06C23.8443 12.0437 23.8211 12.0272 23.7974 12.0103C23.6052 11.8733 23.3865 11.7176 23.1807 11.5531C22.3263 10.8704 21.7203 9.89421 21.3052 8.98903C20.8891 8.08144 20.6259 7.15919 20.497 6.47565C19.9253 3.97117 18.1925 2.78218 16.082 2.29509C13.9434 1.80149 11.522 2.07285 9.92404 2.49515ZM16.5386 0.317033C19.1834 0.927478 21.6955 2.563 22.4813 6.04648L22.4855 6.06525L22.489 6.08417C22.589 6.62163 22.8062 7.39182 23.1506 8.14296C23.5002 8.90546 23.9419 9.56289 24.4479 9.96714C24.6072 10.0944 24.7783 10.2165 24.9772 10.3582C24.9999 10.3744 25.0231 10.3909 25.0466 10.4077C25.2643 10.5631 25.5131 10.7426 25.748 10.9421C26.2172 11.3405 26.7317 11.9009 26.9187 12.7212C27.2074 13.9879 27.1802 15.5586 26.3661 17.1006C25.5503 18.6459 24.0068 20.0445 21.4818 21.0809L21.4178 21.1071L7.1603 24.7993L7.12313 24.806C5.3881 25.12 2.00459 24.8444 0.487173 21.65C-0.529417 19.51 0.246795 17.1545 0.985406 15.4311L1.22801 14.865L1.24137 14.8383C1.33385 14.6534 1.48395 14.3121 1.60863 13.9356C1.72084 13.5968 1.78964 13.2965 1.80674 13.0797C1.13305 10.0658 1.79966 3.72062 9.19813 0.597889L9.26135 0.571204L9.32759 0.553272C11.133 0.0645001 13.9466 -0.2812 16.5386 0.317033Z" fill="#F3F5FD"/>
<path id="Vector 9 (Stroke)_2" fill-rule="evenodd" clip-rule="evenodd" d="M19.3786 23.929C19.872 24.1953 20.0561 24.811 19.7899 25.3043C18.4215 27.8399 16.6033 28.9606 14.7859 29.18C13.0386 29.391 11.4651 28.7476 10.5317 28.0927C10.0728 27.7707 9.96184 27.1377 10.2838 26.6788C10.6058 26.2199 11.2388 26.1089 11.6977 26.4309C12.3276 26.8728 13.4082 27.3016 14.5426 27.1646C15.6069 27.0361 16.8979 26.3886 18.0033 24.3402C18.2696 23.8469 18.8853 23.6628 19.3786 23.929Z" fill="#F3F5FD"/>
</g>
</g>
</svg>
