<svg width="23" height="24" viewBox="0 0 23 24" fill="none" xmlns="http://www.w3.org/2000/svg">
<g id="Group 1000008833">
<g id="Group 1000008832">
<path id="A" d="M10.2538 11.2107H6.25127L5.66275 12.6389C5.57271 12.8574 5.35974 13 5.12342 13C4.70759 13 4.4253 12.5773 4.5846 12.1932L7.303 5.63869C7.46336 5.25205 7.84075 5 8.25933 5C8.67769 5 9.05494 5.2518 9.21543 5.63815L12.25 12.9434C11.4946 12.9773 10.7991 12.534 10.511 11.8349L10.2538 11.2107ZM9.91148 10.3564L8.25253 6.29293L6.59359 10.3564H9.91148Z" fill="white"/>
<path id="&#224;&#164;&#133;" d="M15.1967 16.2658C15.1967 17.5063 14.2367 18.2152 12.93 18.2152C11.439 18.2152 10.4071 17.4327 9.43618 15.1114C9.32919 14.8556 9.45895 14.5645 9.71746 14.4643C9.98053 14.3623 10.2751 14.4972 10.3803 14.7591C11.048 16.4212 11.7747 17.2911 12.8367 17.2911C13.6233 17.2911 14.1433 16.8734 14.1433 16.1519C14.1433 15.5696 13.73 15.1139 13.21 14.7595C12.9783 14.8211 12.7144 14.8704 12.4228 14.9076C12.1937 14.9367 11.9839 14.7833 11.9306 14.5586C11.8663 14.2878 12.0531 14.023 12.3276 13.9766C13.5702 13.7666 13.9167 13.4279 13.9167 12.8101C13.9167 12.2532 13.53 11.8987 12.81 11.8987C12.21 11.8987 11.8239 12.0103 11.2506 12.3394L10.7167 11.519C11.33 11.1899 12.0233 11 12.85 11C14.37 11 14.9833 11.8481 14.9833 12.8228C14.9833 13.481 14.73 14.0127 14.13 14.3798L14.1567 14.4051C14.5833 14.5063 15.05 14.5443 15.4633 14.5443C15.8767 14.5443 16.3167 14.5063 16.7833 14.3924V12.0253H16.2594C16.0112 12.0253 15.81 11.8241 15.81 11.576C15.81 11.3278 16.0112 11.1266 16.2594 11.1266H18.8006C19.0488 11.1266 19.25 11.3278 19.25 11.576C19.25 11.8241 19.0488 12.0253 18.8006 12.0253H17.8633V18.46C17.8633 18.7582 17.6216 19 17.3233 19C17.0251 19 16.7833 18.7582 16.7833 18.46V15.3291C16.4233 15.4177 16.05 15.443 15.6767 15.443C15.4633 15.443 15.21 15.4304 14.9567 15.3924C15.1167 15.6582 15.1967 15.962 15.1967 16.2658Z" fill="white"/>
</g>
<rect id="Rectangle 34626245" x="1.25" y="1" width="21" height="22" rx="5" stroke="white" stroke-width="1.5" stroke-linecap="round" stroke-linejoin="round"/>
</g>
</svg>
