<svg width="27" height="28" viewBox="0 0 27 28" fill="none" xmlns="http://www.w3.org/2000/svg">
<g id="Saved/Stoke">
<g id="Bookmark">
<path id="Bookmark_2" fill-rule="evenodd" clip-rule="evenodd" d="M16.8589 2.37H10.1411C6.64779 2.37 4.5 4.0567 4.5 7.35863V22.9923C4.50504 23.3096 4.57922 23.6079 4.7167 23.877L4.82206 24.0509L4.93235 24.1922C5.50738 24.8665 6.4251 25.0527 7.18247 24.6491L13.4707 21.1165L19.7846 24.6418C20.0664 24.7903 20.3586 24.8652 20.6559 24.87C21.1542 24.8701 21.6201 24.6723 21.9636 24.3201C22.307 23.9679 22.5 23.4903 22.5 22.9923V7.15985C22.5 3.9844 20.3042 2.37 16.8589 2.37ZM10.14 3.99823H16.8577C19.5176 3.99823 20.9103 5.02214 20.9103 7.15938V22.9918C20.9103 23.0579 20.8847 23.1212 20.8391 23.1679C20.7936 23.2147 20.7318 23.2409 20.6673 23.2409C20.6263 23.2401 20.5736 23.2266 20.5259 23.2015L14.2228 19.6826C13.752 19.4218 13.1875 19.4218 12.719 19.6813L6.43341 23.2119C6.33805 23.2624 6.20179 23.2294 6.12918 23.1279L6.08703 23.0579C6.09515 23.0695 6.09368 23.0555 6.09116 23.0315C6.08959 23.0164 6.0876 22.9974 6.08729 22.9783L6.0874 7.35815C6.0874 5.06478 7.4455 3.99823 10.14 3.99823ZM18.1278 10.2903C18.1278 9.84056 17.7722 9.47596 17.3336 9.47596H9.60768L9.4999 9.48339C9.11221 9.53731 8.8134 9.87804 8.8134 10.2903C8.8134 10.7401 9.16901 11.1047 9.60768 11.1047H17.3336L17.4413 11.0972C17.829 11.0433 18.1278 10.7026 18.1278 10.2903Z" fill="white"/>
</g>
</g>
</svg>
