<svg width="22" height="22" viewBox="0 0 22 22" fill="none" xmlns="http://www.w3.org/2000/svg">
<path id="Vector" d="M18.7956 4.33667C20.4639 6.005 21.02 8.78556 21.02 11.01C21.02 13.2344 20.4639 16.015 18.7956 17.6833M15.4589 7.67331C16.015 8.22942 16.5711 9.34167 16.5711 11.01C16.5711 12.6783 16.015 13.7906 15.4589 14.3467M1 9.34167V12.6783C1 13.9069 1.55611 14.9028 3.78056 15.4589C6.005 16.015 7.67333 21.02 11.01 21.02C13.2344 21.02 13.2344 1 11.01 1C7.67333 1 6.005 6.005 3.78056 6.56111C1.55611 7.11722 1 8.11314 1 9.34167Z" stroke="white" stroke-width="1.365" stroke-linecap="round" stroke-linejoin="round"/>
</svg>
